<svg width="24" height="24" viewBox="0 0 24 24" fill="none" xmlns="http://www.w3.org/2000/svg">
  <circle cx="12" cy="12" r="12" fill="#22c55e"/>
  <circle cx="12" cy="12" r="8" fill="white"/>
  <path d="M8 14h8v2c0 1.1-.9 2-2 2h-4c-1.1 0-2-.9-2-2v-2z" fill="#22c55e"/>
  <path d="M9 14v-2c0-.6.4-1 1-1s1 .4 1 1v2h2v-2c0-1.7-1.3-3-3-3s-3 1.3-3 3v2h2z" fill="#22c55e"/>
  <circle cx="9.5" cy="9.5" r="1.5" fill="#22c55e"/>
  <circle cx="12" cy="8" r="1.5" fill="#22c55e"/>
  <circle cx="14.5" cy="9.5" r="1.5" fill="#22c55e"/>
</svg>